<?xml version="1.0" standalone="no"?>
<!DOCTYPE svg PUBLIC "-//W3C//DTD SVG 20010904//EN"
 "http://www.w3.org/TR/2001/REC-SVG-20010904/DTD/svg10.dtd">
<svg version="1.0" xmlns="http://www.w3.org/2000/svg"
 width="433.000000pt" height="433.000000pt" viewBox="0 0 433.000000 433.000000"
 preserveAspectRatio="xMidYMid meet">

<g transform="translate(0.000000,433.000000) scale(0.100000,-0.100000)"
fill="#111827" stroke="none">
<path d="M2180 4074 c0 -25 -57 -154 -106 -239 l-46 -80 11 -180 c6 -99 20
-394 32 -655 11 -261 24 -511 28 -555 5 -44 5 -83 2 -88 -19 -20 -391 -6 -391
15 0 5 9 21 20 35 11 14 22 40 26 58 5 29 10 34 42 37 27 4 46 -1 72 -19 19
-12 50 -23 68 -23 20 0 31 -4 27 -10 -3 -5 -1 -10 5 -10 7 0 10 6 7 13 -2 6 7
25 22 40 l26 28 0 207 c0 114 -6 299 -13 412 -8 113 -12 307 -10 433 2 125 1
227 -2 227 -3 -1 -15 -22 -28 -48 -13 -26 -45 -74 -72 -105 l-49 -57 5 -88 c3
-48 19 -166 36 -262 43 -245 47 -566 8 -590 -16 -10 -64 6 -81 26 -11 13 -14
10 -23 -18 -16 -49 -47 -49 -68 2 -10 25 -30 47 -53 62 l-37 21 28 21 c70 50
123 109 150 169 28 59 29 68 28 202 0 96 -6 165 -18 219 l-18 80 -19 -25 c-11
-13 -36 -57 -56 -97 -40 -80 -40 -75 2 -195 15 -41 16 -53 5 -94 -27 -93 -170
-213 -276 -230 -41 -7 -44 8 -9 43 l26 26 -36 39 c-19 21 -35 48 -35 60 0 19
1 19 22 5 46 -32 113 -9 187 65 70 70 75 101 11 64 -58 -33 -110 -6 -110 58 0
50 68 162 182 298 27 33 48 62 46 65 -3 2 -25 -10 -49 -28 -132 -95 -299 -330
-299 -421 0 -12 -11 -38 -24 -57 -33 -49 -56 -122 -56 -176 0 -55 -11 -61 -89
-47 -31 6 -58 9 -60 7 -9 -9 65 -75 106 -95 l43 -21 0 -68 c0 -38 -4 -71 -8
-74 -4 -2 -23 18 -41 45 -19 27 -36 49 -39 49 -2 0 -2 -18 2 -41 8 -51 36
-107 70 -138 19 -18 26 -35 26 -61 0 -20 -3 -39 -6 -42 -14 -14 -83 21 -127
64 -43 44 -47 45 -41 20 20 -87 71 -147 145 -171 35 -11 37 -14 43 -69 4 -31
9 -78 12 -104 7 -58 -4 -61 -78 -21 -55 30 -113 97 -123 143 -12 56 -25 42
-25 -28 0 -126 72 -220 212 -274 51 -20 59 -28 80 -72 33 -72 126 -160 194
-185 30 -12 62 -21 72 -21 26 0 37 -11 56 -59 85 -216 326 -282 570 -157 154
79 232 178 245 311 6 59 6 60 36 57 17 -1 51 3 77 9 42 10 54 8 102 -11 64
-27 91 -23 142 22 42 37 63 79 56 114 -6 31 -85 104 -113 104 -12 0 -64 -23
-116 -50 -113 -60 -167 -69 -266 -46 -37 9 -82 23 -100 32 -29 16 -28 13 16
-31 26 -27 50 -59 54 -72 16 -65 -31 -169 -105 -234 -122 -107 -324 -118 -470
-25 -24 15 -41 30 -38 34 4 3 39 14 79 24 39 10 99 31 131 48 65 33 86 37 86
16 0 -8 14 -26 31 -40 77 -65 210 -7 240 104 11 40 10 51 -9 93 -24 54 -69 80
-131 76 -27 -2 -35 0 -32 11 2 8 6 32 8 53 3 21 9 40 13 42 5 3 37 -9 73 -26
44 -20 94 -34 155 -41 221 -28 423 71 516 255 45 88 66 210 66 387 0 62 4 110
8 105 12 -14 39 -109 51 -179 35 -192 -17 -429 -126 -586 -16 -22 -13 -21 23
7 197 155 245 533 110 868 -37 91 -125 245 -172 300 l-26 30 6 -40 c3 -22 8
-141 12 -265 10 -320 -7 -448 -73 -560 l-27 -45 -8 55 c-11 72 -37 100 -95
100 -57 0 -87 -16 -215 -117 -107 -84 -175 -122 -214 -123 -26 0 -53 28 -56
60 -3 21 11 29 156 90 215 90 276 145 292 264 6 38 3 48 -18 69 -13 13 -30 26
-38 29 -21 7 -2 28 25 28 14 0 32 11 44 26 27 35 27 99 1 253 -11 65 -21 164
-22 222 -2 88 0 110 18 146 l21 42 -29 28 c-16 15 -46 50 -66 77 -42 58 -44
56 -62 -79 -11 -83 -9 -103 14 -248 38 -233 32 -333 -25 -393 -29 -31 -93 -58
-122 -50 -29 7 -29 8 -53 221 -16 143 -31 704 -21 747 4 14 18 37 32 54 17 19
23 35 19 49 -9 28 -62 132 -90 177 -14 21 -35 71 -49 111 l-24 72 0 -120 c-1
-66 -4 -271 -7 -455 -6 -309 7 -867 25 -1070 l6 -75 30 47 c17 25 54 71 83
102 52 55 55 57 87 46 59 -19 74 -98 28 -143 -48 -45 -260 -134 -278 -116 -18
18 -50 930 -50 1427 0 193 -1 352 -2 352 -2 0 -3 -7 -3 -16z m-660 -1458 c0
-2 -9 -23 -20 -47 -29 -65 -27 -130 6 -163 15 -14 35 -26 45 -26 24 0 24 -12
1 -40 l-19 -23 -55 25 -55 26 -8 107 c-4 59 -3 111 1 115 15 14 104 36 104 26z
m124 -92 c28 -27 16 -74 -18 -74 -26 0 -46 18 -46 41 0 18 25 49 40 49 5 0 16
-7 24 -16z m41 -339 c129 -37 234 -49 340 -37 67 8 92 7 97 -1 13 -20 9 -139
-7 -205 -41 -175 -123 -243 -293 -246 l-86 -1 -10 45 c-9 41 -10 42 -13 15 -7
-56 -9 -57 -55 -34 -85 43 -96 69 -28 69 63 0 139 20 222 57 107 49 126 37 93
-57 -8 -24 -13 -45 -11 -47 11 -12 96 83 115 128 20 45 47 207 36 217 -2 2
-16 -8 -32 -22 -37 -35 -152 -91 -228 -112 -79 -21 -328 -30 -342 -12 -12 15
-43 165 -43 206 0 24 6 29 53 43 73 23 95 22 192 -6z m1046 5 c43 -23 13 -90
-55 -121 -44 -20 -156 -26 -156 -9 0 20 81 99 123 119 48 24 60 25 88 11z
m143 -330 c20 -7 26 -17 26 -38 0 -36 -17 -52 -55 -52 -53 0 -73 43 -38 82 18
21 31 22 67 8z m-574 -80 c11 -11 20 -31 20 -45 0 -28 -32 -65 -56 -65 -33 0
-104 52 -104 76 0 14 76 54 103 54 9 0 26 -9 37 -20z"/>
<path d="M1602 2074 c-27 -19 -27 -25 -1 -57 20 -26 21 -26 46 -10 24 16 26
16 38 -1 13 -17 15 -17 44 5 30 22 30 23 13 51 -17 30 -40 36 -60 16 -9 -9
-15 -9 -24 0 -16 16 -29 15 -56 -4z"/>
<path d="M853 3741 c-12 -25 -31 -67 -43 -93 -11 -27 -25 -48 -30 -48 -4 0 -6
-18 -3 -40 4 -24 2 -40 -5 -40 -5 0 -39 32 -75 70 -36 39 -67 70 -69 70 -7 0
10 -123 22 -154 6 -16 8 -36 5 -45 -3 -10 6 -23 25 -36 40 -27 38 -41 -7 -50
l-38 -7 24 -19 c13 -10 36 -19 51 -19 16 0 36 -7 45 -16 15 -15 19 -15 56 1
21 10 42 15 45 12 9 -9 -47 -118 -63 -124 -17 -7 -17 -23 0 -23 6 0 26 28 42
61 17 33 33 63 36 65 4 2 7 -22 6 -54 0 -66 11 -122 24 -122 5 0 9 11 9 24 0
39 16 40 70 5 48 -31 69 -35 160 -30 24 2 24 2 6 16 -45 34 -96 87 -96 100 0
9 20 16 65 20 38 4 65 12 65 19 0 6 29 26 65 45 36 18 65 37 65 43 0 5 -4 7
-8 4 -10 -6 -100 12 -127 25 -27 13 -84 16 -114 5 -18 -6 -22 -5 -19 5 3 8 22
19 44 25 21 6 39 16 39 23 0 6 6 16 14 20 7 5 11 14 7 19 -4 6 3 16 14 22 15
8 18 15 12 23 -7 8 0 31 19 71 41 85 45 100 22 87 -49 -27 -136 -60 -144 -55
-5 3 -9 12 -9 20 0 23 -18 16 -37 -16 -20 -34 -28 -37 -41 -14 -7 12 -13 1
-26 -45 -22 -78 -38 -89 -35 -24 1 27 0 53 -3 59 -3 5 -11 42 -18 81 -6 40
-15 75 -18 77 -4 2 -17 -17 -29 -43z m-104 -250 c69 -80 89 -120 35 -70 -40
36 -124 139 -124 150 0 20 17 4 89 -80z m119 -90 l-3 -53 -20 23 c-11 12 -14
19 -7 15 9 -5 12 14 13 86 1 91 2 92 11 38 5 -30 7 -79 6 -109z m162 96 c0 -1
-27 -29 -60 -62 -73 -73 -80 -65 -9 11 44 45 69 64 69 51z m53 -164 c-24 -2
-62 -2 -85 0 -24 2 -5 4 42 4 47 0 66 -2 43 -4z m-78 -113 c10 -11 16 -20 13
-20 -3 0 -13 9 -23 20 -10 11 -16 20 -13 20 3 0 13 -9 23 -20z"/>
<path d="M3465 3753 c-3 -21 -12 -63 -19 -93 -7 -30 -11 -74 -9 -97 7 -63 -13
-54 -33 15 -19 67 -22 71 -35 52 -10 -15 -18 -8 -50 40 -6 8 -12 11 -15 5 -16
-36 -20 -36 -80 -10 -32 14 -67 30 -76 35 -25 14 -23 1 13 -75 17 -36 28 -72
26 -80 -3 -7 1 -19 9 -25 8 -7 14 -19 14 -26 0 -8 4 -14 9 -14 5 0 11 -8 14
-19 3 -11 19 -22 42 -27 21 -5 41 -16 43 -23 4 -11 -2 -12 -24 -6 -35 10 -104
7 -118 -4 -15 -12 -108 -31 -119 -24 -5 3 -8 0 -5 -8 2 -7 31 -28 64 -45 32
-18 58 -36 57 -42 -1 -5 26 -12 60 -16 33 -3 66 -11 71 -16 11 -11 -41 -71
-89 -101 l-30 -19 30 -1 c109 -4 152 6 184 45 21 25 41 19 48 -15 3 -16 9 -27
14 -22 14 14 26 107 17 138 -15 58 8 43 41 -25 19 -40 40 -70 48 -70 11 0 9 7
-9 28 -29 35 -63 110 -54 119 4 4 21 0 37 -10 37 -21 46 -21 65 -2 9 8 28 15
44 15 15 0 38 9 51 19 l24 20 -42 7 c-24 3 -43 10 -43 15 0 5 16 19 35 31 36
24 42 33 26 43 -6 3 -4 20 5 41 8 20 18 65 21 102 l6 66 -67 -74 c-37 -41 -72
-77 -78 -79 -7 -2 -9 10 -5 38 3 22 1 41 -3 41 -5 0 -29 43 -54 95 -24 52 -47
95 -50 95 -3 0 -8 -17 -11 -37z m218 -204 c-26 -45 -130 -155 -138 -147 -8 8
132 178 147 178 5 0 1 -14 -9 -31z m-175 -101 c-2 -37 0 -68 5 -68 5 0 4 -7
-3 -15 -7 -8 -16 -15 -21 -15 -8 0 -1 164 8 190 10 26 15 -17 11 -92z m-130
18 c19 -17 43 -44 54 -60 21 -28 21 -28 1 -17 -11 5 -45 39 -74 73 -53 62 -46
63 19 4z m-65 -133 c-13 -2 -35 -2 -50 0 -16 2 -5 4 22 4 28 0 40 -2 28 -4z
m75 0 c-10 -2 -26 -2 -35 0 -10 3 -2 5 17 5 19 0 27 -2 18 -5z m67 -23 c-3 -5
-11 -10 -16 -10 -6 0 -7 5 -4 10 3 6 11 10 16 10 6 0 7 -4 4 -10z m-65 -64 c0
-2 -8 -10 -17 -17 -16 -13 -17 -12 -4 4 13 16 21 21 21 13z"/>
<path d="M2445 3563 c-10 -174 0 -459 20 -568 12 -65 15 -119 11 -195 l-5
-104 25 29 c14 17 34 50 45 75 24 51 22 106 -6 250 -9 49 -17 145 -18 225 -2
136 -1 143 25 194 l28 52 -52 77 c-28 42 -54 81 -58 85 -4 5 -11 -49 -15 -120z"/>
<path d="M2777 3214 c5 -97 19 -296 39 -548 8 -104 15 -227 16 -274 1 -98 9
-92 38 29 22 93 26 255 11 499 -7 104 -6 144 5 175 14 43 15 41 -41 105 -16
19 -40 48 -51 64 l-21 29 4 -79z"/>
<path d="M690 2883 c0 -16 -80 -143 -90 -143 -4 0 -11 7 -14 16 -10 25 -20 8
-22 -34 0 -28 -5 -37 -17 -36 -18 2 -17 -10 8 -82 20 -58 6 -63 -24 -10 -14
25 -31 46 -36 46 -6 0 -35 25 -65 55 -30 30 -57 55 -61 55 -3 0 2 -44 13 -97
10 -54 16 -104 13 -110 -2 -7 7 -24 21 -38 14 -14 23 -29 20 -34 -5 -7 -117 8
-175 25 -20 6 -22 5 -13 -12 15 -28 93 -103 114 -110 10 -3 18 -12 18 -20 0
-10 12 -14 39 -14 52 0 59 -15 24 -48 -27 -26 -27 -27 -6 -30 12 -2 37 4 55
14 18 9 44 17 58 18 18 1 29 10 39 34 16 35 37 42 44 15 4 -17 5 -17 6 0 2 26
17 21 30 -10 13 -32 77 -103 92 -103 6 0 7 10 4 23 -4 12 -8 27 -9 32 0 6 27
11 62 12 39 1 68 7 77 16 8 8 30 25 50 37 37 23 48 45 17 36 -18 -6 -131 9
-141 20 -3 3 4 14 17 24 12 10 22 23 22 29 0 5 13 18 30 27 20 13 26 21 19 30
-6 8 0 30 21 69 38 72 40 94 6 68 -13 -11 -43 -25 -67 -32 -62 -18 -100 -40
-126 -70 -31 -37 -29 -6 2 35 14 18 21 35 17 38 -4 3 -7 25 -7 50 1 27 -3 47
-10 50 -7 2 -18 35 -25 73 -12 63 -29 114 -30 86z m-40 -358 c-11 -85 -20
-109 -20 -52 0 36 21 140 27 134 1 -2 -2 -39 -7 -82z m-95 -55 c37 -45 65 -84
61 -87 -8 -8 -37 22 -94 98 -38 51 -48 69 -39 69 2 0 34 -36 72 -80z m275 51
c0 -9 -71 -61 -84 -61 -4 0 11 16 34 35 44 37 50 40 50 26z m-391 -90 c86 -21
128 -42 81 -40 -46 1 -194 44 -198 58 -3 9 1 11 14 7 11 -3 57 -14 103 -25z
m286 9 c-3 -5 -16 -15 -28 -21 -22 -12 -22 -12 -3 10 19 21 43 30 31 11z m-50
-60 c3 -6 -1 -7 -9 -4 -18 7 -21 14 -7 14 6 0 13 -4 16 -10z"/>
<path d="M3647 2858 c-3 -13 -9 -45 -12 -71 -4 -26 -14 -54 -21 -62 -8 -7 -11
-21 -8 -30 4 -10 1 -21 -6 -25 -11 -7 -11 -12 -2 -22 8 -10 8 -18 1 -25 -7 -7
-2 -20 15 -41 32 -37 35 -67 3 -32 -29 33 -72 60 -94 60 -10 0 -44 13 -76 29
-55 26 -57 27 -51 7 3 -12 19 -44 34 -72 21 -37 26 -54 18 -62 -8 -8 -4 -14
15 -23 15 -7 27 -16 27 -20 0 -5 12 -19 26 -33 26 -24 27 -24 5 -35 -11 -6
-48 -13 -81 -14 -33 -1 -59 -6 -57 -12 2 -5 25 -25 52 -44 43 -30 57 -34 107
-34 61 1 69 -7 48 -48 -8 -14 -7 -19 2 -19 17 0 86 74 98 105 12 31 32 33 25
3 -12 -47 -22 -128 -17 -133 14 -14 23 -2 18 21 -8 31 11 134 25 134 5 0 17
-16 26 -35 11 -23 23 -34 33 -32 8 2 32 -5 52 -15 21 -10 49 -18 64 -18 l28 0
-28 29 c-34 36 -27 51 25 51 24 0 39 5 39 13 0 6 18 24 39 40 22 15 54 46 72
68 l33 41 -35 -7 c-162 -37 -198 -34 -146 11 15 13 23 25 18 28 -7 5 2 64 28
179 4 20 6 37 3 37 -3 0 -26 -19 -51 -43 -25 -23 -55 -49 -67 -57 -11 -8 -34
-35 -49 -59 -31 -47 -44 -41 -25 12 28 78 29 85 9 80 -17 -5 -19 0 -19 42 0
48 0 48 -21 29 -14 -12 -22 -15 -27 -7 -4 6 -23 39 -42 72 -19 33 -38 61 -41
61 -4 0 -9 -10 -12 -22z m82 -388 c1 -62 -17 -11 -23 65 l-5 70 14 -50 c7 -27
13 -66 14 -85z m144 66 c-20 -34 -109 -146 -120 -150 -27 -11 -11 15 53 88 63
73 84 92 67 62z m-306 -36 c14 -11 22 -20 17 -20 -12 1 -61 39 -51 40 5 0 20
-9 34 -20z m473 -49 c0 -12 -42 -28 -120 -46 -73 -17 -100 -19 -100 -7 0 4 44
19 98 33 113 30 122 32 122 20z"/>
<path d="M1777 2720 c-32 -26 -33 -30 -6 -64 l20 -26 30 22 c16 12 29 24 29
27 -1 3 -11 19 -24 34 l-22 28 -27 -21z"/>
<path d="M2720 2450 c-24 -18 -25 -20 -8 -47 22 -37 31 -38 63 -11 l27 23 -22
28 c-25 32 -28 32 -60 7z"/>
<path d="M1910 2356 c0 -8 7 -16 15 -20 8 -3 15 -13 15 -22 0 -10 3 -14 6 -11
9 8 -16 67 -27 67 -5 0 -9 -6 -9 -14z"/>
<path d="M642 2256 c0 -48 2 -66 10 -58 7 7 7 29 1 69 l-10 58 -1 -69z"/>
<path d="M755 1874 c-7 -84 -8 -86 -31 -81 -27 5 -30 -7 -9 -43 20 -34 19 -40
-7 -40 -13 0 -19 -4 -13 -8 27 -21 88 -92 83 -98 -4 -3 -24 6 -45 20 -20 14
-44 26 -53 26 -8 0 -46 11 -84 25 -39 13 -72 23 -74 20 -2 -2 5 -17 18 -32 56
-73 100 -138 100 -150 0 -7 6 -13 13 -13 18 0 53 -27 46 -34 -3 -4 -48 -17
-100 -30 l-94 -24 55 -25 c30 -14 73 -29 95 -33 22 -4 43 -12 47 -18 5 -7 18
-5 42 7 42 20 53 9 36 -34 -20 -46 -4 -46 42 1 24 23 50 43 58 45 10 1 16 16
18 48 2 26 7 47 12 47 15 0 71 -82 77 -113 6 -31 23 -47 23 -21 0 9 -18 44
-40 77 -43 63 -46 85 -7 49 13 -12 29 -22 36 -22 6 0 30 -9 52 -21 45 -23 61
-19 36 9 -26 29 -21 40 33 63 41 18 55 31 81 76 17 30 29 56 27 59 -3 2 -32
-6 -66 -17 -79 -27 -95 -22 -80 23 6 18 15 40 19 48 20 33 21 42 10 50 -9 5
-11 21 -6 53 4 26 4 58 1 72 -6 25 -7 24 -44 -18 -20 -23 -41 -44 -46 -46 -22
-9 -65 -66 -68 -89 -2 -14 -8 -27 -15 -29 -8 -3 -9 7 -1 39 6 29 6 44 -1 46
-6 2 -11 12 -11 23 0 10 -4 19 -9 19 -5 0 -11 10 -13 23 -2 12 -9 21 -15 20
-6 -2 -32 26 -57 62 -26 35 -50 66 -55 69 -5 3 -12 -33 -16 -80z m265 -235
c-12 -23 -24 -38 -27 -35 -5 5 35 76 43 76 2 0 -5 -18 -16 -41z m-141 -46 c11
-37 18 -69 16 -72 -7 -6 -36 67 -42 106 -9 55 5 37 26 -34z m95 -47 c-3 -9
-10 -16 -15 -16 -6 0 -5 9 1 21 13 24 24 20 14 -5z m-163 -27 c78 -37 108 -59
80 -59 -5 0 -18 -3 -28 -6 -12 -4 -14 -3 -6 3 9 6 -8 19 -58 43 -62 31 -104
60 -84 60 3 0 47 -19 96 -41z m152 -36 c-7 -2 -19 -2 -25 0 -7 3 -2 5 12 5 14
0 19 -2 13 -5z m-138 -42 c-3 -6 -38 -16 -78 -25 -114 -23 -132 -25 -147 -15
-8 5 -13 9 -10 9 3 1 46 9 95 19 103 21 149 25 140 12z"/>
<path d="M3571 1941 c-27 -49 -84 -116 -97 -113 -9 2 -14 -6 -14 -23 0 -15 -6
-25 -15 -25 -9 0 -12 -6 -9 -15 4 -8 -1 -17 -9 -21 -12 -4 -13 -11 -5 -34 5
-16 8 -39 6 -52 -4 -22 -5 -21 -16 7 -23 56 -47 95 -58 95 -11 0 -67 58 -92
96 -10 16 -12 6 -10 -63 2 -59 0 -84 -9 -87 -10 -4 -9 -13 4 -38 30 -61 33
-68 33 -83 0 -8 -6 -15 -12 -15 -18 0 -103 27 -127 40 -29 15 -26 2 9 -53 17
-26 30 -51 30 -55 0 -4 25 -19 55 -32 60 -26 67 -40 33 -64 -12 -9 -19 -18
-16 -21 8 -9 110 34 134 56 11 10 23 19 27 19 14 0 6 -20 -32 -77 -21 -32 -36
-65 -33 -72 4 -10 9 -5 15 15 9 24 41 81 70 119 12 16 27 -16 27 -59 0 -28 4
-37 14 -33 7 3 31 -14 55 -39 56 -60 75 -61 45 -2 -22 42 -7 54 40 31 26 -12
39 -14 44 -6 4 6 32 16 62 22 30 7 72 22 92 35 l37 22 -102 23 -102 23 24 19
c13 10 29 19 37 19 8 0 14 6 14 14 0 8 27 52 59 98 33 45 59 84 58 85 -7 6
-192 -59 -216 -76 -57 -41 -57 -14 0 43 32 31 38 42 25 44 -20 4 -20 4 -1 49
19 45 19 44 -9 37 -27 -6 -35 12 -37 81 0 22 -4 51 -8 65 l-7 25 -13 -24z
m-65 -315 c-9 -37 -25 -84 -36 -106 -11 -22 -16 -40 -12 -40 5 0 58 23 117 50
59 28 109 49 112 47 4 -5 -56 -42 -135 -81 -30 -15 -52 -30 -49 -32 3 -3 65
-16 138 -30 135 -25 148 -29 135 -41 -17 -17 -303 48 -341 78 -6 4 -38 12 -70
17 -56 9 -150 41 -143 48 2 1 37 -6 78 -17 40 -10 82 -19 93 -19 18 0 18 1 -1
33 -39 64 -74 137 -70 147 2 6 27 -37 57 -95 29 -59 57 -103 61 -98 5 4 22 55
40 111 35 115 49 131 26 28z m8 -232 c3 -8 2 -12 -4 -9 -6 3 -10 10 -10 16 0
14 7 11 14 -7z"/>
<path d="M2823 1595 c-62 -41 -113 -79 -113 -85 0 -5 52 24 115 66 63 43 115
81 115 86 0 11 10 16 -117 -67z"/>
<path d="M2036 1558 l-25 -23 23 -29 24 -29 31 22 31 23 -21 29 c-25 35 -31
36 -63 7z"/>
<path d="M2575 1319 c-11 -16 -1 -19 13 -3 7 8 8 14 3 14 -5 0 -13 -5 -16 -11z"/>
<path d="M2795 1320 c-16 -7 -17 -9 -3 -9 9 -1 20 4 23 9 7 11 7 11 -20 0z"/>
<path d="M1495 1300 c3 -5 16 -10 28 -9 21 0 21 1 2 9 -28 12 -37 12 -30 0z"/>
<path d="M2636 1277 c-44 -11 -73 -23 -65 -25 8 -3 17 -10 21 -16 5 -7 8 -4 8
7 0 12 8 17 29 17 17 0 33 5 36 10 3 6 16 10 28 10 12 0 29 5 37 10 23 15 -1
11 -94 -13z"/>
<path d="M2812 1272 c-2 -24 -8 -35 -24 -42 -13 -5 -16 -9 -8 -9 29 -1 42 15
37 50 l-4 34 -1 -33z"/>
<path d="M1550 1280 c0 -5 7 -7 15 -4 8 4 15 8 15 10 0 2 -7 4 -15 4 -8 0 -15
-4 -15 -10z"/>
<path d="M2386 1274 c-9 -8 -16 -21 -16 -27 0 -7 5 -4 11 5 5 10 17 22 27 27
9 6 12 11 5 11 -6 0 -19 -7 -27 -16z"/>
<path d="M1437 1273 c-4 -3 -7 -11 -7 -17 0 -7 3 -7 8 0 4 7 16 14 27 17 19 5
19 5 -1 6 -11 0 -24 -2 -27 -6z"/>
<path d="M1600 1270 c8 -5 24 -10 34 -10 26 0 18 6 -19 14 -22 5 -26 4 -15 -4z"/>
<path d="M2275 1270 c4 -6 11 -8 16 -5 14 9 11 15 -7 15 -8 0 -12 -5 -9 -10z"/>
<path d="M2760 1265 c-6 -8 -10 -19 -8 -24 1 -6 8 1 15 14 13 28 11 31 -7 10z"/>
<path d="M1493 1230 c0 -25 2 -35 4 -22 2 12 2 32 0 45 -2 12 -4 2 -4 -23z"/>
<path d="M1001 1244 c0 -11 3 -14 6 -6 3 7 2 16 -1 19 -3 4 -6 -2 -5 -13z"/>
<path d="M1664 1251 c4 -6 11 -9 16 -6 17 10 40 -8 40 -31 0 -18 -6 -24 -22
-25 l-23 0 23 -9 c13 -6 23 -19 23 -32 1 -13 5 4 9 37 3 33 6 61 6 62 -1 0
-19 4 -40 8 -28 6 -37 5 -32 -4z"/>
<path d="M3336 1251 c-19 -7 -19 -8 2 -13 15 -4 22 -2 22 8 0 8 -1 14 -2 13
-2 0 -12 -4 -22 -8z"/>
<path d="M2524 1243 c15 -4 17 -12 13 -44 -3 -21 -1 -39 4 -39 5 0 9 20 9 45
0 40 -2 45 -22 44 -19 -1 -20 -2 -4 -6z"/>
<path d="M1076 1224 c-11 -28 -6 -44 12 -44 14 0 15 2 2 10 -12 8 -13 13 -2
30 7 11 8 20 3 20 -5 0 -12 -7 -15 -16z"/>
<path d="M1440 1220 c6 -11 13 -20 16 -20 2 0 0 9 -6 20 -6 11 -13 20 -16 20
-2 0 0 -9 6 -20z"/>
<path d="M1768 1200 c2 -22 5 -40 7 -40 2 0 5 18 7 40 2 24 -1 40 -7 40 -6 0
-9 -16 -7 -40z"/>
<path d="M2450 1236 c0 -9 40 -13 46 -5 3 5 -6 9 -20 9 -14 0 -26 -2 -26 -4z"/>
<path d="M2704 1229 c-3 -6 -1 -16 5 -22 8 -8 11 -5 11 11 0 24 -5 28 -16 11z"/>
<path d="M652 1218 c-7 -7 -12 -27 -12 -46 0 -29 3 -34 20 -29 10 3 27 -1 37
-8 15 -11 18 -26 15 -99 l-3 -85 43 -27 c24 -15 88 -49 144 -75 253 -120 528
-201 836 -246 173 -25 657 -25 838 1 348 49 652 139 938 278 l122 59 0 88 c0
95 7 111 52 111 24 0 27 3 23 31 -4 34 -21 59 -40 59 -7 0 -77 -31 -156 -69
-343 -165 -686 -259 -1084 -296 -104 -10 -425 -7 -552 5 -371 35 -758 147
-1095 316 -94 47 -107 51 -126 32z m2918 -136 c1 -20 7 -48 15 -62 17 -30 19
-50 5 -50 -6 0 -35 25 -65 55 -43 44 -51 57 -38 62 8 3 24 1 34 -6 17 -10 19
-8 19 12 0 13 3 27 6 30 13 13 24 -5 24 -41z m-2737 -7 l-2 -40 15 28 c15 27
28 34 38 19 8 -13 -59 -127 -75 -127 -10 0 -14 13 -13 45 1 37 -1 42 -10 27
-26 -44 -35 -52 -45 -42 -15 15 57 137 78 133 12 -3 15 -14 14 -43z m2645 -21
c27 -19 19 -38 -14 -30 -18 5 -24 2 -24 -9 0 -26 20 -55 37 -55 14 0 14 2 -3
15 -19 15 -19 15 0 30 27 20 29 19 49 -14 21 -36 22 -51 2 -51 -8 0 -15 -4
-15 -10 0 -5 -13 -10 -30 -10 -49 0 -92 88 -63 129 17 25 31 26 61 5z m-2523
-4 c6 -9 -4 -68 -22 -132 -6 -24 -33 -23 -33 1 0 26 -17 36 -36 20 -11 -9 -18
-9 -26 -1 -7 7 3 26 38 66 47 55 67 66 79 46z m83 -40 c18 -11 39 -20 48 -20
9 0 14 -3 12 -8 -1 -4 -14 -35 -28 -70 -17 -43 -30 -62 -42 -62 -23 0 -23 7 6
73 24 53 24 55 4 49 -11 -3 -27 -21 -35 -41 -22 -52 -33 -64 -49 -50 -11 9 -9
20 11 59 15 30 21 51 15 55 -17 10 -11 35 8 35 9 0 32 -9 50 -20z m2345 -8
c39 -43 50 -106 23 -124 -35 -24 -77 2 -97 60 -21 60 35 107 74 64z m-2213
-50 c19 -16 22 -24 16 -55 -10 -54 -46 -92 -79 -83 -48 12 -49 85 -2 132 29
29 36 29 65 6z m2096 -31 c16 -46 19 -49 46 -44 43 8 37 -24 -8 -43 -20 -8
-37 -14 -38 -12 -15 25 -54 133 -50 139 13 22 33 5 50 -40z m-2016 -28 c0 -20
4 -32 10 -28 6 3 10 15 10 26 0 11 7 19 16 19 20 0 14 -39 -16 -107 -23 -52
-35 -49 -46 10 l-7 42 -10 -32 c-9 -32 -37 -47 -37 -20 0 11 36 113 46 129 12
19 34 -7 34 -39z m1970 5 c25 -54 25 -71 0 -93 -28 -25 -64 -13 -84 29 -31 65
-19 106 31 106 30 0 36 -4 53 -42z m-102 -54 c27 -74 27 -74 3 -74 -11 0 -32
15 -46 33 -17 20 -24 24 -20 12 17 -44 17 -65 3 -65 -9 0 -21 23 -32 58 -10
31 -21 63 -23 69 -10 25 28 26 53 2 19 -17 23 -19 18 -6 -8 21 4 54 15 41 4
-5 17 -36 29 -70z m-1738 -11 c0 -32 -3 -68 -6 -80 -8 -28 -34 -30 -34 -3 0
21 -33 29 -45 10 -8 -13 -25 -13 -25 1 0 6 16 38 36 70 23 39 42 59 55 59 17
0 19 -7 19 -57z m1628 -20 c11 -36 19 -70 16 -75 -11 -17 -32 -7 -38 17 -4 14
-13 25 -21 25 -12 0 -12 -5 -4 -27 12 -31 -8 -53 -27 -28 -18 25 -37 126 -25
138 7 7 14 2 22 -16 17 -38 40 -36 33 3 -5 22 -3 30 8 30 8 0 22 -26 36 -67z
m-1562 25 c-3 -18 -9 -45 -12 -60 -5 -22 -3 -28 10 -28 9 0 19 -7 22 -15 10
-26 -4 -33 -46 -23 -30 8 -39 15 -36 27 3 9 12 42 21 74 11 38 22 57 32 57 12
0 14 -7 9 -32z m1441 -15 c14 -21 14 -23 -3 -30 -10 -4 -19 -2 -22 5 -2 7 -8
12 -13 12 -12 0 -11 -51 1 -70 8 -13 12 -11 26 8 20 29 39 15 30 -22 -4 -17
-16 -28 -33 -32 -37 -10 -73 33 -73 86 0 66 54 93 87 43z m-1308 5 c-1 -36
-26 -129 -36 -139 -21 -21 -26 14 -13 78 7 32 14 61 17 66 7 12 33 8 32 -5z
m59 -36 c4 -38 22 -44 22 -7 0 16 6 25 16 25 12 0 15 -6 11 -22 -3 -13 -9 -44
-12 -71 -4 -26 -12 -50 -18 -54 -14 -8 -37 25 -38 56 0 23 -2 22 -13 -9 -27
-75 -40 -8 -16 81 14 50 43 51 48 1z m1145 32 c11 -11 -5 -34 -23 -34 -30 0
-33 -18 -3 -22 33 -4 43 -27 14 -35 -30 -8 -26 -22 6 -20 18 1 28 -3 31 -14 2
-12 -9 -19 -38 -27 -46 -11 -50 -7 -64 70 -5 28 -11 36 -22 31 -15 -6 -14 -39
2 -94 3 -10 -3 -19 -12 -23 -22 -8 -22 -8 -33 49 -5 26 -16 52 -25 57 -23 13
-20 37 7 42 142 27 151 29 160 20z m-1002 -47 c0 -9 2 -9 6 1 5 14 79 17 87 3
3 -5 15 -7 26 -4 18 5 20 0 20 -40 0 -66 -10 -107 -27 -107 -12 0 -14 13 -11
63 3 57 1 63 -14 59 -12 -3 -18 -14 -18 -36 0 -51 -11 -76 -31 -76 -17 0 -18
5 -13 43 12 70 11 72 -18 72 -14 0 -30 3 -34 8 -10 10 -24 9 -24 -1 0 -5 11
-14 25 -20 27 -13 35 -58 13 -80 -30 -30 -98 -2 -84 33 4 12 10 14 25 5 34
-18 37 -11 7 13 -24 19 -28 28 -22 51 4 15 17 31 29 35 24 10 57 -3 58 -22z
m777 -4 c-2 -10 -13 -19 -26 -21 -30 -5 -28 -22 3 -22 18 0 25 -5 25 -20 0
-13 -7 -20 -20 -20 -17 0 -20 -6 -18 -27 2 -22 -1 -28 -16 -28 -11 0 -20 7
-21 15 -11 81 -14 128 -8 133 3 4 24 7 45 7 32 0 39 -3 36 -17z m-535 1 l37
-7 0 -59 c0 -79 24 -76 28 4 l3 56 110 1 c100 0 110 -1 107 -17 -2 -9 -13 -18
-26 -20 -27 -4 -29 -22 -2 -22 11 0 20 -6 20 -14 0 -7 -9 -16 -20 -19 -30 -8
-24 -29 7 -25 19 2 29 -2 31 -13 2 -13 -7 -18 -43 -21 -26 -2 -48 -1 -51 1 -2
2 -4 33 -4 68 0 56 -2 63 -14 50 -8 -8 -16 -38 -18 -68 -2 -40 -7 -54 -18 -54
-11 0 -16 14 -18 57 -2 38 -8 58 -17 62 -12 4 -15 -5 -15 -44 0 -41 -4 -52
-24 -65 -18 -12 -30 -13 -50 -6 -24 10 -26 15 -26 66 0 42 -3 55 -15 55 -11 0
-15 -11 -15 -37 0 -53 -10 -83 -26 -83 -10 0 -14 16 -14 60 0 33 -4 60 -10 60
-5 0 -10 9 -10 20 0 22 22 25 93 14z m433 -29 c19 -46 18 -78 -4 -105 -52 -64
-124 49 -76 118 24 35 62 29 80 -13z"/>
<path d="M3340 970 c0 -20 24 -60 37 -60 17 0 17 20 -3 48 -16 23 -34 29 -34
12z"/>
<path d="M1122 905 c-13 -28 -16 -55 -6 -55 13 0 33 35 34 58 0 30 -14 28 -28
-3z"/>
<path d="M3160 892 c0 -28 17 -62 30 -62 17 0 11 37 -10 61 l-19 24 -1 -23z"/>
<path d="M2402 704 c2 -22 8 -38 13 -36 15 3 12 65 -3 70 -10 3 -13 -6 -10
-34z"/>
<path d="M1110 1226 c0 -2 7 -7 16 -10 8 -3 12 -2 9 4 -6 10 -25 14 -25 6z"/>
<path d="M1532 1219 c2 -6 7 -10 11 -10 4 1 17 1 30 2 21 0 21 1 2 9 -28 12
-47 12 -43 -1z"/>
<path d="M2315 1221 c-33 -3 -53 -9 -45 -12 8 -3 35 -4 59 -2 29 2 48 -1 53
-9 6 -10 8 -8 8 4 0 10 10 18 28 21 42 6 -30 5 -103 -2z"/>
<path d="M3298 1203 c5 -21 7 -23 10 -9 2 10 0 22 -6 28 -6 6 -7 0 -4 -19z"/>
<path d="M1603 1185 c0 -22 2 -30 4 -17 2 12 2 30 0 40 -3 9 -5 -1 -4 -23z"/>
<path d="M1881 1216 c9 -8 99 -13 99 -5 0 5 -23 9 -52 9 -28 0 -49 -2 -47 -4z"/>
<path d="M2646 1203 c-8 -20 8 -21 26 -2 16 17 16 18 -2 16 -11 -1 -22 -7 -24
-14z"/>
<path d="M1644 1194 c3 -9 6 -19 6 -22 0 -9 20 21 20 31 0 4 -7 7 -16 7 -11 0
-14 -5 -10 -16z"/>
<path d="M2005 1200 c4 -6 11 -8 16 -5 14 9 11 15 -7 15 -8 0 -12 -5 -9 -10z"/>
<path d="M2123 1203 c9 -2 23 -2 30 0 6 3 -1 5 -18 5 -16 0 -22 -2 -12 -5z"/>
<path d="M2235 1200 c3 -5 8 -10 11 -10 2 0 4 5 4 10 0 6 -5 10 -11 10 -5 0
-7 -4 -4 -10z"/>
<path d="M2453 1195 c-18 -8 -33 -19 -33 -26 0 -7 8 -5 20 6 10 9 26 15 35 12
9 -4 15 -1 15 8 0 8 -1 15 -2 15 -2 -1 -18 -7 -35 -15z"/>
<path d="M1185 1190 c-3 -5 -1 -10 4 -10 6 0 11 5 11 10 0 6 -2 10 -4 10 -3 0
-8 -4 -11 -10z"/>
<path d="M2602 1170 c0 -19 2 -27 5 -17 2 9 2 25 0 35 -3 9 -5 1 -5 -18z"/>
<path d="M3187 1189 c7 -7 15 -10 18 -7 3 3 -2 9 -12 12 -14 6 -15 5 -6 -5z"/>
<path d="M980 1180 c0 -5 5 -10 11 -10 5 0 7 5 4 10 -3 6 -8 10 -11 10 -2 0
-4 -4 -4 -10z"/>
<path d="M1960 1171 c0 -11 -8 -22 -17 -24 -16 -4 -16 -5 -1 -6 10 -1 18 -12
21 -28 2 -16 5 -4 6 25 0 28 -1 52 -4 52 -3 0 -5 -9 -5 -19z"/>
<path d="M2332 1170 c0 -14 2 -19 5 -12 2 6 2 18 0 25 -3 6 -5 1 -5 -13z"/>
<path d="M3240 1175 c0 -8 4 -15 10 -15 5 0 7 7 4 15 -4 8 -8 15 -10 15 -2 0
-4 -7 -4 -15z"/>
<path d="M3371 1174 c0 -11 3 -14 6 -6 3 7 2 16 -1 19 -3 4 -6 -2 -5 -13z"/>
<path d="M1250 1169 c0 -5 5 -7 10 -4 6 3 10 8 10 11 0 2 -4 4 -10 4 -5 0 -10
-5 -10 -11z"/>
<path d="M2208 1172 c-21 -2 -38 -7 -38 -12 0 -9 68 -5 78 4 9 9 -1 11 -40 8z"/>
<path d="M2383 1140 c0 -25 2 -35 4 -22 2 12 2 32 0 45 -2 12 -4 2 -4 -23z"/>
<path d="M1061 1154 c0 -11 3 -14 6 -6 3 7 2 16 -1 19 -3 4 -6 -2 -5 -13z"/>
<path d="M1292 1156 c7 -8 15 -12 17 -11 5 6 -10 25 -20 25 -5 0 -4 -6 3 -14z"/>
<path d="M2000 1128 c0 -49 5 -47 13 5 3 20 2 37 -4 37 -5 0 -9 -19 -9 -42z"/>
<path d="M2290 1155 c0 -9 -10 -20 -22 -25 -22 -8 -22 -9 5 -9 22 -1 27 3 27
24 0 14 -2 25 -5 25 -3 0 -5 -7 -5 -15z"/>
<path d="M2488 1145 c2 -14 6 -25 8 -25 2 0 4 11 4 25 0 14 -4 25 -9 25 -4 0
-6 -11 -3 -25z"/>
<path d="M3141 1154 c0 -11 3 -14 6 -6 3 7 2 16 -1 19 -3 4 -6 -2 -5 -13z"/>
<path d="M3310 1161 c0 -6 4 -13 10 -16 6 -3 7 1 4 9 -7 18 -14 21 -14 7z"/>
<path d="M1150 1138 c-12 -22 -12 -22 6 -6 10 10 15 20 12 24 -4 3 -12 -5 -18
-18z"/>
<path d="M1666 1145 c4 -8 11 -15 16 -15 6 0 5 6 -2 15 -7 8 -14 15 -16 15 -2
0 -1 -7 2 -15z"/>
<path d="M1890 1145 c0 -8 5 -15 10 -15 6 0 10 7 10 15 0 8 -4 15 -10 15 -5 0
-10 -7 -10 -15z"/>
<path d="M3101 1144 c0 -11 3 -14 6 -6 3 7 2 16 -1 19 -3 4 -6 -2 -5 -13z"/>
<path d="M1761 1134 c0 -11 3 -14 6 -6 3 7 2 16 -1 19 -3 4 -6 -2 -5 -13z"/>
<path d="M2435 1130 c10 -11 20 -20 23 -20 3 0 -3 9 -13 20 -10 11 -20 20 -23
20 -3 0 3 -9 13 -20z"/>
<path d="M1198 1115 c2 -14 6 -25 8 -25 2 0 4 11 4 25 0 14 -4 25 -9 25 -4 0
-6 -11 -3 -25z"/>
<path d="M1241 1124 c0 -11 3 -14 6 -6 3 7 2 16 -1 19 -3 4 -6 -2 -5 -13z"/>
<path d="M1380 1126 c0 -9 5 -16 10 -16 6 0 10 4 10 9 0 6 -4 13 -10 16 -5 3
-10 -1 -10 -9z"/>
<path d="M2147 1121 c23 -26 53 -23 53 6 0 15 -2 15 -14 -2 -14 -19 -14 -19
-38 0 l-23 19 22 -23z"/>
<path d="M647 1124 c-11 -12 -8 -41 6 -53 22 -17 55 12 41 36 -12 19 -36 28
-47 17z"/>
<path d="M1298 1099 c-9 -16 -13 -29 -7 -29 9 0 33 49 27 56 -2 1 -11 -11 -20
-27z"/>
<path d="M3140 1121 c0 -10 39 -46 43 -40 2 2 -7 14 -20 26 -13 12 -23 19 -23
14z"/>
<path d="M3216 1113 c-6 -14 -5 -15 5 -6 7 7 10 15 7 18 -3 3 -9 -2 -12 -12z"/>
<path d="M3652 1118 c-16 -16 -15 -23 3 -42 28 -27 69 10 44 40 -14 17 -31 18
-47 2z"/>
<path d="M1451 1104 c0 -11 3 -14 6 -6 3 7 2 16 -1 19 -3 4 -6 -2 -5 -13z"/>
<path d="M2906 1111 c-4 -5 3 -7 14 -4 11 3 28 -1 38 -8 15 -13 16 -12 3 4
-14 18 -46 23 -55 8z"/>
<path d="M3112 1100 c0 -14 2 -19 5 -12 2 6 2 18 0 25 -3 6 -5 1 -5 -13z"/>
<path d="M1490 1100 c0 -5 7 -7 15 -4 8 4 15 8 15 10 0 2 -7 4 -15 4 -8 0 -15
-4 -15 -10z"/>
<path d="M3031 1094 c0 -11 3 -14 6 -6 3 7 2 16 -1 19 -3 4 -6 -2 -5 -13z"/>
<path d="M1230 1091 c0 -10 19 -25 25 -20 1 2 -3 10 -11 17 -8 7 -14 8 -14 3z"/>
<path d="M1371 1084 c0 -11 3 -14 6 -6 3 7 2 16 -1 19 -3 4 -6 -2 -5 -13z"/>
<path d="M2826 1091 c-15 -6 -16 -9 -5 -13 8 -3 20 1 27 8 14 15 7 17 -22 5z"/>
<path d="M2891 1069 c-1 -35 21 -62 45 -56 17 4 16 5 -3 6 -16 1 -24 9 -29 29
-9 44 -12 49 -13 21z"/>
<path d="M1617 1073 c-4 -3 -7 -16 -7 -27 0 -17 7 -22 28 -23 25 -2 26 -1 5 7
-13 5 -23 16 -23 24 0 8 10 17 23 19 20 4 20 4 1 6 -11 0 -24 -2 -27 -6z"/>
<path d="M2971 1064 c0 -11 3 -14 6 -6 3 7 2 16 -1 19 -3 4 -6 -2 -5 -13z"/>
<path d="M1481 1048 c1 -17 3 -18 6 -6 3 11 11 15 21 12 15 -5 15 -4 2 5 -23
16 -30 13 -29 -11z"/>
<path d="M1696 1055 c-9 -26 -7 -32 5 -12 6 10 9 21 6 23 -2 3 -7 -2 -11 -11z"/>
<path d="M2694 1055 c-8 -20 4 -35 26 -35 10 0 24 -8 29 -17 6 -10 11 -13 11
-7 0 16 -22 34 -43 34 -14 0 -18 5 -14 20 6 23 -1 27 -9 5z"/>
<path d="M640 944 c0 -94 3 -113 16 -118 35 -13 44 12 44 123 l0 106 -30 0
-30 0 0 -111z"/>
<path d="M1744 1038 c1 -19 -4 -23 -26 -20 -21 2 -28 -2 -28 -15 0 -15 2 -16
10 -3 9 13 15 10 36 -15 19 -22 23 -24 14 -7 -9 18 -8 26 4 38 8 8 13 21 10
29 -9 23 -21 18 -20 -7z"/>
<path d="M2604 1045 c-8 -19 13 -45 36 -45 10 0 21 -5 23 -10 3 -6 4 -5 3 2
-1 7 -13 15 -27 18 -13 3 -25 14 -27 24 -3 15 1 18 22 14 14 -3 23 -1 20 3 -9
15 -44 10 -50 -6z"/>
<path d="M3040 1050 c0 -5 5 -10 11 -10 5 0 7 5 4 10 -3 6 -8 10 -11 10 -2 0
-4 -4 -4 -10z"/>
<path d="M3640 948 c0 -100 1 -108 22 -119 37 -20 48 10 48 126 l0 101 -35 0
-35 0 0 -108z"/>
<path d="M1400 1040 c0 -5 5 -10 10 -10 6 0 10 5 10 10 0 6 -4 10 -10 10 -5 0
-10 -4 -10 -10z"/>
<path d="M1795 1039 c-11 -16 -1 -19 13 -3 7 8 8 14 3 14 -5 0 -13 -5 -16 -11z"/>
<path d="M2538 1043 c6 -2 18 -2 25 0 6 3 1 5 -13 5 -14 0 -19 -2 -12 -5z"/>
<path d="M2842 1025 c0 -16 2 -22 5 -12 2 9 2 23 0 30 -3 6 -5 -1 -5 -18z"/>
<path d="M1900 1040 c-1 -3 -3 -16 -6 -30 -3 -21 -2 -22 7 -7 6 10 8 23 5 30
-2 7 -5 10 -6 7z"/>
<path d="M2512 1005 c-1 -22 2 -35 6 -29 4 7 18 14 32 17 l25 4 -27 2 c-19 1
-28 7 -31 24 -2 12 -5 5 -5 -18z"/>
<path d="M1960 1021 c0 -6 5 -13 10 -16 6 -3 10 1 10 9 0 9 -4 16 -10 16 -5 0
-10 -4 -10 -9z"/>
<path d="M2060 1023 c26 -5 50 -28 50 -50 0 -7 -10 -23 -21 -34 -12 -12 -15
-19 -8 -17 8 3 20 16 28 30 13 23 13 29 -2 52 -12 18 -25 26 -45 25 -27 -2
-27 -2 -2 -6z"/>
<path d="M2230 1021 c0 -5 10 -7 21 -4 15 4 27 0 35 -12 8 -11 14 -14 14 -9 0
17 -23 34 -47 34 -13 0 -23 -4 -23 -9z"/>
<path d="M2366 1011 c-17 -19 -17 -21 0 -50 10 -17 22 -31 26 -31 5 0 -1 13
-13 30 -22 29 -22 30 -4 50 10 11 16 20 13 20 -3 0 -13 -9 -22 -19z"/>
<path d="M2425 1010 c10 -11 20 -20 22 -20 2 0 -2 9 -9 20 -7 11 -17 20 -22
20 -5 0 -1 -9 9 -20z"/>
<path d="M1485 1010 c3 -4 14 -10 25 -13 11 -3 18 -2 15 3 -3 4 -14 10 -25 13
-11 3 -18 2 -15 -3z"/>
<path d="M1861 999 c-2 -39 -27 -57 -54 -39 -20 12 -21 12 -8 -3 7 -10 19 -17
26 -17 21 0 47 37 42 62 -4 22 -4 21 -6 -3z"/>
<path d="M1781 994 c0 -11 3 -14 6 -6 3 7 2 16 -1 19 -3 4 -6 -2 -5 -13z"/>
<path d="M2041 973 c-1 -23 3 -44 7 -47 4 -2 6 12 4 32 -5 56 -10 62 -11 15z"/>
<path d="M2232 960 c1 -30 2 -35 5 -17 4 23 9 28 24 24 10 -3 19 -1 19 4 0 5
-9 9 -19 9 -11 0 -22 6 -24 13 -3 6 -5 -8 -5 -33z"/>
<path d="M2480 979 c0 -19 -2 -20 -17 -8 -15 13 -15 12 -2 -8 19 -31 29 -29
29 7 0 17 -2 30 -5 30 -3 0 -5 -10 -5 -21z"/>
<path d="M2181 979 c-1 -8 6 -24 15 -35 15 -19 15 -19 6 1 -5 11 -12 27 -15
35 -5 13 -6 13 -6 -1z"/>
<path d="M1971 964 c0 -11 3 -14 6 -6 3 7 2 16 -1 19 -3 4 -6 -2 -5 -13z"/>
<path d="M2600 970 c0 -9 39 -25 45 -18 2 2 -7 8 -21 15 -13 6 -24 7 -24 3z"/>
<path d="M2140 959 c0 -5 5 -7 10 -4 6 3 10 8 10 11 0 2 -4 4 -10 4 -5 0 -10
-5 -10 -11z"/>
<path d="M1920 950 c0 -5 5 -10 11 -10 5 0 7 5 4 10 -3 6 -8 10 -11 10 -2 0
-4 -4 -4 -10z"/>
<path d="M2533 943 c9 -2 25 -2 35 0 9 3 1 5 -18 5 -19 0 -27 -2 -17 -5z"/>
<path d="M447 822 c-10 -10 -17 -30 -17 -44 0 -22 4 -25 25 -20 16 3 33 -2 45
-13 17 -15 19 -28 15 -101 l-4 -84 37 -23 c40 -25 218 -110 322 -153 287 -119
723 -220 1034 -240 l109 -7 -8 139 c-4 76 -11 142 -17 145 -5 3 -58 9 -116 12
-392 21 -829 145 -1324 376 -78 36 -80 37 -101 13z m252 -134 c13 -9 21 -24
19 -34 -4 -24 -28 -30 -28 -7 0 24 -19 43 -42 43 -27 0 -22 -21 12 -53 72 -68
-2 -131 -79 -67 -17 15 -22 26 -17 45 9 34 20 31 31 -7 8 -26 16 -34 38 -36
36 -4 35 16 -3 53 -36 35 -40 72 -7 84 24 9 40 5 76 -21z m140 -61 c54 -27 70
-50 55 -74 -6 -10 -23 -19 -37 -21 l-26 -3 16 -40 c17 -43 15 -53 -10 -43 -8
3 -21 28 -27 55 -16 66 -37 64 -32 -3 2 -21 -14 -22 -48 -3 -22 12 -23 14 -7
20 18 8 57 86 57 116 0 23 4 23 59 -4z m171 -79 c0 -4 -4 -8 -9 -8 -12 0 -45
-91 -43 -118 2 -20 -2 -22 -21 -17 -34 11 -45 25 -26 35 19 11 53 95 46 114
-3 8 -3 16 0 19 7 8 53 -14 53 -25z m111 -84 l16 -59 8 35 c5 19 8 43 6 52 -2
15 2 16 20 9 24 -8 38 -31 21 -31 -6 0 -20 -29 -32 -65 -12 -36 -26 -65 -30
-65 -9 0 -13 14 -38 110 l-9 35 -13 -40 c-8 -22 -13 -50 -12 -62 2 -20 -1 -21
-23 -11 -24 11 -34 28 -16 28 12 0 50 109 40 116 -18 11 2 23 24 15 16 -6 26
-24 38 -67z m203 -36 c3 -18 7 -51 10 -73 3 -22 8 -49 12 -59 6 -17 4 -18 -22
-12 -37 10 -39 12 -26 29 9 10 8 18 -1 31 -18 24 -51 17 -55 -12 -4 -24 -18
-28 -42 -11 -11 8 -12 12 -2 16 6 2 33 31 58 64 25 32 49 59 54 59 5 0 11 -15
14 -32z m200 -19 c25 -12 41 -48 27 -62 -4 -4 -16 4 -25 18 -38 58 -114 1 -84
-62 16 -33 62 -44 72 -17 3 9 1 23 -5 30 -9 11 -7 14 9 14 11 0 27 -3 36 -6
14 -5 14 -8 1 -27 -8 -12 -15 -30 -15 -40 0 -13 -5 -17 -16 -13 -9 3 -29 6
-45 6 -19 0 -40 10 -56 26 -21 21 -24 32 -20 62 7 40 46 82 77 82 11 0 30 -5
44 -11z m186 -54 c5 -13 12 -47 16 -75 4 -27 10 -50 15 -50 5 0 9 -4 9 -10 0
-5 -13 -10 -30 -10 -27 0 -29 2 -24 29 5 25 3 29 -20 33 -28 6 -48 -15 -39
-39 3 -8 -4 -13 -16 -13 -23 0 -36 16 -21 25 5 3 26 35 46 70 19 36 40 65 45
65 5 0 14 -11 19 -25z m183 -1 c44 -8 63 -34 47 -64 -6 -11 -17 -20 -25 -20
-22 0 -18 -14 11 -49 25 -30 25 -31 5 -31 -13 0 -32 16 -51 41 -23 33 -31 38
-36 25 -3 -9 -3 -28 0 -42 6 -22 4 -25 -9 -20 -9 3 -24 6 -32 6 -13 0 -13 3
-3 15 8 9 14 44 14 80 1 72 0 71 79 59z"/>
<path d="M805 589 c-8 -25 -5 -29 31 -32 38 -3 44 25 9 41 -33 15 -33 16 -40
-9z"/>
<path d="M1283 401 c-10 -15 -9 -20 2 -25 11 -4 15 2 15 19 0 30 -2 31 -17 6z"/>
<path d="M1672 318 c-16 -16 -15 -28 3 -28 8 0 15 9 15 20 0 23 -2 24 -18 8z"/>
<path d="M1850 311 c0 -19 25 -31 48 -24 6 3 12 13 12 24 0 14 -7 19 -30 19
-23 0 -30 -5 -30 -19z"/>
<path d="M3800 804 c-185 -87 -457 -185 -682 -243 -220 -58 -419 -90 -718
-116 l-65 -6 -1 -155 -1 -154 58 0 c167 0 558 73 814 151 139 43 380 139 505
202 l105 52 3 102 c2 92 5 104 23 114 12 6 32 8 45 5 19 -5 24 -3 24 14 0 19
-32 60 -47 60 -5 0 -33 -12 -63 -26z m-138 -169 c9 -20 8 -28 -5 -43 -16 -18
-16 -19 8 -30 14 -7 32 -12 40 -12 8 0 15 -5 15 -10 0 -22 -34 -22 -76 -2 -43
21 -44 21 -44 2 0 -10 8 -24 18 -29 16 -10 16 -12 -2 -26 -25 -19 -47 -19 -40
-1 6 16 -34 116 -47 116 -24 0 -4 23 34 40 59 26 85 25 99 -5z m-197 -56 c-9
-13 32 -110 53 -125 13 -9 10 -13 -18 -22 -42 -15 -43 -15 -36 5 9 21 -22 113
-40 120 -19 7 -18 21 4 26 31 8 43 7 37 -4z m-101 -44 c-9 -22 25 -112 44
-120 15 -6 13 -8 -8 -20 -36 -20 -37 -20 -44 30 -10 65 -26 66 -26 1 0 -68
-13 -72 -54 -16 -16 22 -31 38 -33 36 -7 -7 28 -76 40 -76 17 -1 -23 -30 -41
-30 -9 0 -12 6 -8 17 8 19 -21 114 -38 126 -8 5 -6 10 4 17 25 17 35 12 71
-36 l34 -46 3 53 c2 29 8 59 14 66 15 18 49 17 42 -2z m-229 -77 c-7 -26 19
-108 38 -120 9 -6 8 -10 -3 -18 -29 -19 -47 -12 -48 21 -1 40 -5 43 -39 32
-33 -11 -40 -34 -17 -57 19 -20 18 -22 -20 -32 -24 -6 -28 -4 -23 9 7 20 -18
118 -34 128 -8 5 -5 10 9 18 30 16 45 14 38 -5 -4 -9 -4 -25 -1 -35 5 -14 11
-16 37 -8 42 11 43 15 24 43 -15 23 -15 26 2 35 29 17 43 13 37 -11z m-206
-60 c16 -25 6 -36 -19 -20 -25 15 -57 16 -66 1 -9 -15 14 -29 49 -29 41 0 67
-17 67 -44 0 -32 -27 -52 -77 -59 -39 -5 -42 -3 -52 24 -12 33 -2 37 34 13 29
-19 68 -10 63 14 -2 12 -16 18 -45 20 -95 7 -83 99 13 99 11 0 26 -8 33 -19z
m-190 -84 c19 -32 39 -62 45 -66 14 -9 7 -15 -28 -24 -25 -6 -28 -4 -22 13 8
26 -13 44 -43 36 -19 -5 -22 -11 -17 -34 5 -25 3 -29 -18 -29 -23 0 -23 1 -10
43 8 23 19 61 25 85 6 25 15 42 22 39 6 -2 27 -30 46 -63z m-190 10 l-34 -35
43 -40 c23 -22 42 -42 42 -44 0 -3 -16 -5 -36 -5 -22 0 -33 4 -29 11 7 11 -22
49 -37 49 -4 0 -8 -11 -8 -25 0 -14 5 -25 11 -25 5 0 7 -4 4 -10 -3 -5 -20
-10 -37 -10 -26 0 -29 2 -18 15 14 16 5 111 -12 133 -8 9 -2 12 28 12 30 0 35
-3 26 -12 -7 -7 -12 -23 -12 -37 l1 -26 23 29 c14 16 22 35 19 43 -4 9 4 13
28 13 l33 0 -35 -36z"/>
<path d="M3595 628 c-28 -15 -28 -14 -20 -37 5 -17 9 -19 30 -9 29 13 38 33
22 47 -8 6 -19 6 -32 -1z"/>
<path d="M2686 315 c-9 -23 -8 -25 9 -25 17 0 19 9 6 28 -7 11 -10 10 -15 -3z"/>
<path d="M447 739 c-23 -14 -21 -46 3 -54 23 -7 50 10 50 31 0 20 -32 34 -53
23z"/>
<path d="M3852 734 c-37 -25 -1 -65 39 -44 24 13 24 36 1 49 -14 7 -25 6 -40
-5z"/>
<path d="M430 563 c0 -68 4 -114 11 -118 5 -4 21 -4 35 -1 24 6 24 8 24 119
l0 112 -35 0 -35 0 0 -112z"/>
<path d="M3832 566 c3 -91 6 -111 21 -120 12 -8 22 -8 35 0 14 9 17 29 20 120
l3 109 -41 0 -41 0 3 -109z"/>
</g>
</svg>
